<?xml version="1.0" standalone="no"?><!DOCTYPE svg PUBLIC "-//W3C//DTD SVG 1.1//EN" "http://www.w3.org/Graphics/SVG/1.1/DTD/svg11.dtd"><svg class="icon" height="512" viewBox="0 0 1024 1024" version="1.1" xmlns="http://www.w3.org/2000/svg"><path fill="#ffffff" d="M261.12 293.36c10.53-1.75 21.24-1.31 31.88-1.36h168.95c-5.29 21.69-10.81 43.31-16.11 65-0.3 1.41-0.77 3.14-2.54 3.13-51.4 11.35-102.79 22.69-154.19 34.03-8.2 1.76-15.79 6.46-20.63 13.36-4.53 6.14-6.55 13.85-6.46 21.42-0.01 55.7-0.04 111.4 0.01 167.1-0.01 8.45 2.98 16.92 8.67 23.22 4.76 5.44 11.39 9.03 18.41 10.59 49.48 10.93 98.96 21.87 148.45 32.76 2.51 0.7 5.37 0.72 7.6 2.14 5.77 22.36 11.24 44.82 16.79 67.25H296c-11.92-0.11-23.95 0.55-35.75-1.5-33.08-5.14-63.12-25.78-80.47-54.3-11.86-18.78-17.84-41.04-17.78-63.2V411c-0.07-22.16 5.93-44.43 17.78-63.2 17.51-28.77 47.93-49.51 81.34-54.44zM562.06 292H729c12.05 0.07 24.22-0.52 36.13 1.73 32.78 5.52 62.41 26.26 79.47 54.7 11.62 18.63 17.46 40.65 17.4 62.56-0.01 68.01 0.03 136.02-0.02 204.02-0.18 32.5-14.5 64.56-38.56 86.38-20.58 19.11-48.3 30.32-76.41 30.58-61.66 0.07-123.31 0.01-184.96 0.03 5.35-21.95 10.91-43.86 16.32-65.79 0.09-1.32 1.02-2.25 2.34-2.32 51.39-11.35 102.79-22.68 154.18-34.04 10.39-2.15 19.6-9.31 23.93-19.04 3.11-6.46 3.32-13.78 3.16-20.81 0.01-54.02 0.04-108.05-0.01-162.07 0.14-12.05-6.39-24.01-16.97-29.93-4.6-2.7-9.86-3.86-15.02-4.93-48.12-10.59-96.22-21.27-144.35-31.83-2.26-0.61-4.75-0.73-6.79-1.93-5.73-22.4-11.24-44.86-16.78-67.31zM441.01 503.01c47.33-0.02 94.65-0.02 141.98 0 0.02 5.99 0.02 11.98 0 17.98-47.33 0.02-94.65 0.02-141.98 0-0.02-6-0.03-11.99 0-17.98z" /></svg>